<svg width="24" height="24" viewBox="0 0 24 24" fill="none" xmlns="http://www.w3.org/2000/svg">
<mask id="path-1-inside-1_1_105" fill="white">
<path d="M20 9L12 19L4 9L7 5H12H17L20 9Z"/>
</mask>
<path d="M12 19L11.2816 19.2155L12 21.6101L12.7184 19.2155L12 19ZM12 5L12.6 4.55L12 3.75L11.4 4.55L12 5ZM15 9V9.75H20V9V8.25H15V9ZM15 9L15.6 8.55L12.6 4.55L12 5L11.4 5.45L14.4 9.45L15 9ZM4 9V9.75H9V9V8.25H4V9ZM9 9V9.75H15V9V8.25H9V9ZM9 9L9.6 9.45L12.6 5.45L12 5L11.4 4.55L8.4 8.55L9 9ZM9 9L8.28163 9.21551L11.2816 19.2155L12 19L12.7184 18.7845L9.71837 8.78449L9 9ZM15 9L14.2816 8.78449L11.2816 18.7845L12 19L12.7184 19.2155L15.7184 9.21551L15 9ZM20 9L21.1713 9.93704L21.8972 9.02964L21.2 8.1L20 9ZM12 19L10.8287 19.937L12 21.4012L13.1713 19.937L12 19ZM4 9L2.8 8.1L2.10277 9.02964L2.8287 9.93704L4 9ZM7 5V3.5H6.25L5.8 4.1L7 5ZM17 5L18.2 4.1L17.75 3.5H17V5ZM20 9L18.8287 8.06296L10.8287 18.063L12 19L13.1713 19.937L21.1713 9.93704L20 9ZM12 19L13.1713 18.063L5.1713 8.06296L4 9L2.8287 9.93704L10.8287 19.937L12 19ZM4 9L5.2 9.9L8.2 5.9L7 5L5.8 4.1L2.8 8.1L4 9ZM17 5L15.8 5.9L18.8 9.9L20 9L21.2 8.1L18.2 4.1L17 5ZM7 5V6.5H12V5V3.5H7V5ZM12 5V6.5H17V5V3.5H12V5Z" fill="currentColor" mask="url(#path-1-inside-1_1_105)"/>
</svg>
