<svg width="24" height="24" viewBox="0 0 24 24" fill="none" xmlns="http://www.w3.org/2000/svg">
<mask id="path-1-inside-1_1_105" fill="white">
<path d="M20 9L12 19L4 9L7 5H12H17L20 9Z"/>
</mask>
<path d="M12 19L11.5211 19.1437L12 20.7401L12.4789 19.1437L12 19ZM12 5L12.4 4.7L12 4.16667L11.6 4.7L12 5ZM15 9V9.5H20V9V8.5H15V9ZM15 9L15.4 8.7L12.4 4.7L12 5L11.6 5.3L14.6 9.3L15 9ZM4 9V9.5H9V9V8.5H4V9ZM9 9V9.5H15V9V8.5H9V9ZM9 9L9.4 9.3L12.4 5.3L12 5L11.6 4.7L8.6 8.7L9 9ZM9 9L8.52109 9.14367L11.5211 19.1437L12 19L12.4789 18.8563L9.47891 8.85633L9 9ZM15 9L14.5211 8.85633L11.5211 18.8563L12 19L12.4789 19.1437L15.4789 9.14367L15 9ZM20 9L20.7809 9.62469L21.2648 9.01976L20.8 8.4L20 9ZM12 19L11.2191 19.6247L12 20.6008L12.7809 19.6247L12 19ZM4 9L3.2 8.4L2.73518 9.01976L3.21913 9.62469L4 9ZM7 5V4H6.5L6.2 4.4L7 5ZM17 5L17.8 4.4L17.5 4H17V5ZM20 9L19.2191 8.3753L11.2191 18.3753L12 19L12.7809 19.6247L20.7809 9.62469L20 9ZM12 19L12.7809 18.3753L4.78087 8.3753L4 9L3.21913 9.62469L11.2191 19.6247L12 19ZM4 9L4.8 9.6L7.8 5.6L7 5L6.2 4.4L3.2 8.4L4 9ZM17 5L16.2 5.6L19.2 9.6L20 9L20.8 8.4L17.8 4.4L17 5ZM7 5V6H12V5V4H7V5ZM12 5V6H17V5V4H12V5Z" fill="currentColor" mask="url(#path-1-inside-1_1_105)"/>
</svg>
