<svg width="24" height="24" viewBox="0 0 24 24" fill="none" xmlns="http://www.w3.org/2000/svg">
<path d="M13.5 9.5L13.1623 9.16228C12.5204 8.52037 11.4796 8.52037 10.8377 9.16228C10.3374 9.66256 10.2134 10.4268 10.5298 11.0596L10.5528 11.1056C10.8269 11.6537 11.3871 12 12 12C12.6129 12 13.1731 12.3463 13.4472 12.8944L13.4702 12.9404C13.7866 13.5732 13.6626 14.3374 13.1623 14.8377C12.5204 15.4796 11.4796 15.4796 10.8377 14.8377L10.5 14.5M12 8.68085V7.5M12 15.3192V16.5M12 20C7.58172 20 4 16.4183 4 12C4 7.58172 7.58172 4 12 4C16.4183 4 20 7.58172 20 12C20 16.4183 16.4183 20 12 20Z" stroke="currentColor" stroke-width="1.5"/>
</svg>
