<svg width="24" height="24" viewBox="0 0 24 24" fill="none" xmlns="http://www.w3.org/2000/svg">
<mask id="path-1-inside-1_1_104" fill="white">
<path d="M4 12C4 16.4183 7.58172 20 12 20C16.4183 20 20 16.4183 20 12C20 7.58172 16.4183 4 12 4C7.58172 4 4 7.58172 4 12Z"/>
</mask>
<path d="M13.1623 9.16228L13.5158 8.80872H13.5158L13.1623 9.16228ZM10.5298 11.0596L10.0826 11.2832L10.0826 11.2833L10.5298 11.0596ZM10.5528 11.1056L11 10.882L11 10.882L10.5528 11.1056ZM13.4702 12.9404L13.9174 12.7168L13.9174 12.7167L13.4702 12.9404ZM10.8377 14.8377L11.1913 14.4842V14.4842L10.8377 14.8377ZM13.5 9.5L13.8536 9.14644L13.5158 8.80872L13.1623 9.16228L12.8087 9.51583L13.1464 9.85355L13.5 9.5ZM10.5298 11.0596L10.0826 11.2833L10.1056 11.3292L10.5528 11.1056L11 10.882L10.977 10.836L10.5298 11.0596ZM13.4472 12.8944L13 13.118L13.023 13.164L13.4702 12.9404L13.9174 12.7167L13.8944 12.6708L13.4472 12.8944ZM10.8377 14.8377L11.1913 14.4842L10.8536 14.1464L10.5 14.5L10.1464 14.8536L10.4842 15.1913L10.8377 14.8377ZM13.1623 14.8377L12.8087 14.4842C12.3621 14.9308 11.6379 14.9308 11.1913 14.4842L10.8377 14.8377L10.4842 15.1913C11.3213 16.0284 12.6787 16.0284 13.5158 15.1913L13.1623 14.8377ZM13.4702 12.9404L13.023 13.164C13.2431 13.6043 13.1568 14.1361 12.8087 14.4842L13.1623 14.8377L13.5158 15.1913C14.1683 14.5388 14.33 13.5421 13.9174 12.7168L13.4702 12.9404ZM12 12V12.5C12.4235 12.5 12.8106 12.7393 13 13.118L13.4472 12.8944L13.8944 12.6708C13.5356 11.9533 12.8023 11.5 12 11.5V12ZM10.5528 11.1056L10.1056 11.3292C10.4644 12.0467 11.1977 12.5 12 12.5V12V11.5C11.5765 11.5 11.1894 11.2607 11 10.882L10.5528 11.1056ZM10.8377 9.16228L10.4842 8.80872C9.83171 9.46118 9.66996 10.4579 10.0826 11.2832L10.5298 11.0596L10.977 10.836C10.7569 10.3957 10.8432 9.86393 11.1913 9.51583L10.8377 9.16228ZM13.1623 9.16228L13.5158 8.80872C12.6787 7.97155 11.3213 7.97155 10.4842 8.80872L10.8377 9.16228L11.1913 9.51583C11.6379 9.06918 12.3621 9.06918 12.8087 9.51583L13.1623 9.16228ZM12 8.68085H12.5V7.5H12H11.5V8.68085H12ZM12 15.3192H11.5V16.5H12H12.5V15.3192H12ZM12 20V19C8.13401 19 5 15.866 5 12H4H3C3 16.9706 7.02944 21 12 21V20ZM20 12H19C19 15.866 15.866 19 12 19V20V21C16.9706 21 21 16.9706 21 12H20ZM12 4V5C15.866 5 19 8.13401 19 12H20H21C21 7.02944 16.9706 3 12 3V4ZM12 4V3C7.02944 3 3 7.02944 3 12H4H5C5 8.13401 8.13401 5 12 5V4Z" fill="currentColor" mask="url(#path-1-inside-1_1_104)"/>
</svg>
