<svg width="24" height="24" viewBox="0 0 24 24" fill="none" xmlns="http://www.w3.org/2000/svg">
<path d="M5.50991 16.5088H18.4901M5.50991 16.5088L3.6556 9.9901C4.89181 13.6824 8.29138 11.8363 9.21853 8.14395C11.0728 11.8363 12.9272 11.8363 14.7815 8.14395C15.7086 11.8363 19.1082 13.6824 20.3444 9.9901L18.4901 16.5088M5.50991 16.5088V18.3549H18.4901V16.5088M3.19202 9.9901C2.93599 9.7352 2.93599 9.32193 3.19202 9.06703C3.44805 8.81212 3.86315 8.81212 4.11918 9.06703C4.3752 9.32193 4.3752 9.7352 4.11918 9.9901C3.86315 10.245 3.44805 10.245 3.19202 9.9901ZM14.3179 6.75933C14.0619 6.50443 14.0619 6.09116 14.3179 5.83625C14.5739 5.58135 14.989 5.58135 15.245 5.83625C15.5011 6.09116 15.5011 6.50443 15.245 6.75933C14.989 7.01423 14.5739 7.01423 14.3179 6.75933ZM19.8808 9.9901C19.6248 9.7352 19.6248 9.32193 19.8808 9.06703C20.1369 8.81212 20.552 8.81212 20.808 9.06703C21.064 9.32193 21.064 9.7352 20.808 9.9901C20.552 10.245 20.1369 10.245 19.8808 9.9901ZM8.57284 6.75933C8.31682 6.50443 8.31682 6.09116 8.57284 5.83625C8.82887 5.58135 9.24397 5.58135 9.5 5.83625C9.75603 6.09116 9.75603 6.50443 9.5 6.75933C9.24397 7.01423 8.82887 7.01423 8.57284 6.75933Z" stroke="currentColor"/>
</svg>
