<svg width="24" height="24" viewBox="0 0 24 24" fill="none" xmlns="http://www.w3.org/2000/svg">
<path d="M17.8662 6.13379L20 12L17.8662 17.8662L12 20L6.13379 17.8662L4 12L6.13379 6.13379L12 4L17.8662 6.13379ZM7.69141 17.1562L11.4004 18.5049V16.6992L8.96191 15.8857L7.69141 17.1562ZM12.5996 16.6992V18.5049L16.3076 17.1562L15.0371 15.8857L12.5996 16.6992ZM6.84277 16.3076L8.11328 15.0371L7.30078 12.5996H5.49512L6.84277 16.3076ZM15.8857 15.0371L17.1562 16.3076L18.5049 12.5996H16.6992L15.8857 15.0371ZM9.27344 9.27344L8.36523 12L9.27344 14.7256L12 15.6338L14.7256 14.7256L15.6338 12L14.7256 9.27344L12 8.36523L9.27344 9.27344ZM5.49512 11.4004H7.30078L8.11328 8.96191L6.84277 7.69141L5.49512 11.4004ZM15.8857 8.96191L16.6992 11.4004H18.5049L17.1562 7.69141L15.8857 8.96191ZM7.69141 6.84277L8.96191 8.11328L11.4004 7.2998V5.49414L7.69141 6.84277ZM12.5996 7.2998L15.0371 8.11328L16.3076 6.84277L12.5996 5.49414V7.2998Z" fill="currentColor"/>
</svg>
