<svg width="24" height="24" viewBox="0 0 24 24" fill="none" xmlns="http://www.w3.org/2000/svg">
<path d="M16.1436 13.9473L17.1436 20.9473L17.2695 21.8311L16.4043 21.6143L12.4043 20.6143L11.6787 20.4326L12.0127 19.7637L15.0127 13.7637L15.8721 12.0459L16.1436 13.9473ZM6.06445 8.72363L9.06445 13.7236L9.14941 13.8662V21.1982L8.03516 19.3408L5.03516 14.3408L4.9502 14.1982V6.86621L6.06445 8.72363ZM13.4209 19.6309L15.8291 20.2334L15.2275 16.0186L13.4209 19.6309ZM6.14941 13.8652L7.9502 16.8662V14.1992L6.14941 11.1973V13.8652ZM11.6396 3.92188L13.1396 11.9219L13.5439 14.0801L12.0986 12.4277L8.59863 8.42773L8.33301 8.12402L8.5127 7.76367L10.5127 3.76367L11.3105 2.16895L11.6396 3.92188ZM16.5498 6.03223C16.8259 6.03223 17.0498 6.25608 17.0498 6.53223V8.03223H18.5498C18.8259 8.03223 19.0498 8.25608 19.0498 8.53223C19.0498 8.80837 18.8259 9.03223 18.5498 9.03223H17.0498V10.5322C17.0498 10.8084 16.8259 11.0322 16.5498 11.0322C16.2737 11.0322 16.0498 10.8084 16.0498 10.5322V9.03223H14.5498C14.2737 9.03223 14.0498 8.80837 14.0498 8.53223C14.0498 8.25608 14.2737 8.03223 14.5498 8.03223H16.0498V6.53223C16.0498 6.25608 16.2737 6.03223 16.5498 6.03223ZM9.7666 7.94043L11.5547 9.98438L10.7881 5.89648L9.7666 7.94043Z" fill="currentColor"/>
</svg>
