<svg width="24" height="24" viewBox="0 0 24 24" fill="none" xmlns="http://www.w3.org/2000/svg">
<path d="M11.5879 7.14355L16.5879 9.14355L16.9648 9.29395V12.9336L17.5547 13.1309L17.791 13.21L17.9023 13.4316L19.9023 17.4316L20.3359 18.2998H12.6338L12.7773 17.583L12.834 17.2998H10.9648V19.2998H5.11719L3.94141 18.124L3.63477 17.8184L5.82812 13.4316L6.04395 13.001L6.51074 13.1182L6.76562 13.1816V10.4004L7.00488 10.2197L11.0049 7.21973L11.2754 7.01758L11.5879 7.14355ZM5.09473 17.582L5.61328 18.1006H9.76562V15.168L7.21973 14.5322L6.68652 14.3984L5.09473 17.582ZM14.1533 16.8174L14.0967 17.1006H18.3945L16.9385 14.1904L16.1758 13.9365L14.8193 13.4834L14.1533 16.8174ZM7.96484 11.001V13.4814L10.5107 14.1182L10.9648 14.2314V16.1006H13.0732L13.7773 12.583L13.9102 11.916L14.5547 12.1309L15.7656 12.5342V10.1055L11.4561 8.38184L7.96484 11.001ZM17.8652 4.7002C18.1414 4.7002 18.3652 4.92405 18.3652 5.2002V6.7002H19.8652C20.1414 6.7002 20.3652 6.92405 20.3652 7.2002C20.3652 7.47634 20.1414 7.7002 19.8652 7.7002H18.3652V9.2002C18.3652 9.47634 18.1414 9.7002 17.8652 9.7002C17.5891 9.7002 17.3652 9.47634 17.3652 9.2002V7.7002H15.8652C15.5891 7.7002 15.3652 7.47634 15.3652 7.2002C15.3652 6.92405 15.5891 6.7002 15.8652 6.7002H17.3652V5.2002C17.3652 4.92405 17.5891 4.7002 17.8652 4.7002Z" fill="currentColor"/>
</svg>
