<svg width="24" height="24" viewBox="0 0 24 24" fill="none" xmlns="http://www.w3.org/2000/svg">
<path d="M5.40938 5.5V15.5M11.4094 8.5V17C11.4094 17.8284 10.7378 18.5 9.90938 18.5C9.08095 18.5 8.40938 17.8284 8.40938 17M18.5906 14C18.5906 14.8284 17.919 15.5 17.0906 15.5H16.5906C15.4861 15.5 14.5906 14.6046 14.5906 13.5V7.5C14.5906 6.39543 15.4861 5.5 16.5906 5.5H17.0906C17.919 5.5 18.5906 6.17157 18.5906 7M8.40938 11V14C8.40938 14.8284 9.08095 15.5 9.90938 15.5C10.7378 15.5 11.4094 14.8284 11.4094 14V11C11.4094 10.1716 10.7378 9.5 9.90938 9.5C9.08095 9.5 8.40938 10.1716 8.40938 11Z" stroke="white" stroke-linecap="round"/>
</svg>
