<svg width="24" height="24" viewBox="0 0 24 24" fill="none" xmlns="http://www.w3.org/2000/svg">
<path d="M5.5 5.5V15.5M11.5 8.5V17C11.5 17.8284 10.8227 18.5 10 18.5C9.17731 18.5 8.5 17.8284 8.5 17M14.5 15.5V10.5M14.5 10.5C14.5 10.5 14.5 8.67157 14.5 7.5V5.5H16.5C17.6046 5.5 18.5 6.39543 18.5 7.5V8.5C18.5 9.60457 17.6046 10.5 16.5 10.5H14.5ZM14.5 10.5L18.5 15.5M8.5 11V14C8.5 14.8284 9.17731 15.5 10 15.5C10.8227 15.5 11.5 14.8284 11.5 14V11C11.5 10.1716 10.8227 9.5 10 9.5C9.17731 9.5 8.5 10.1716 8.5 11Z" stroke="currentColor" stroke-linecap="round"/>
</svg>
