<svg width="24" height="24" viewBox="0 0 24 24" fill="none" xmlns="http://www.w3.org/2000/svg">
<path d="M4.5 5.51609V15.5161M10.5 8.51609V17.0161C10.5 17.8445 9.82843 18.5161 9 18.5161C8.17157 18.5161 7.5 17.8445 7.5 17.0161M13.5 15.5161C13.5 15.5161 13.5 9.42133 13.5 5.51609C13.5 5.01603 16 10.516 16.5 10.516C17 10.516 19.5 5.01602 19.5 5.51605C19.5 15.516 19.5 15.5161 19.5 15.5161M7.5 11.0161V14.0161C7.5 14.8445 8.17157 15.5161 9 15.5161C9.82843 15.5161 10.5 14.8445 10.5 14.0161V11.0161C10.5 10.1877 9.82843 9.51609 9 9.51609C8.17157 9.51609 7.5 10.1877 7.5 11.0161Z" stroke="white" stroke-linecap="round"/>
</svg>
