<svg width="24" height="24" viewBox="0 0 24 24" fill="none" xmlns="http://www.w3.org/2000/svg">
<path d="M5.5 5.5V15.5M11.4585 8.5V17C11.4585 17.8284 10.7915 18.5 9.96885 18.5C9.14616 18.5 8.47923 17.8284 8.47923 17M14.5277 15.5V10.5M14.5277 10.5V5.5H16.5C17.6046 5.5 18.5 6.39543 18.5 7.5V8.5C18.5 9.60457 17.6046 10.5 16.5 10.5H14.5277ZM8.47923 11V14C8.47923 14.8284 9.14616 15.5 9.96885 15.5C10.7915 15.5 11.4585 14.8284 11.4585 14V11C11.4585 10.1716 10.7915 9.5 9.96885 9.5C9.14616 9.5 8.47923 10.1716 8.47923 11Z" stroke="white" stroke-linecap="round"/>
</svg>
