<svg width="24" height="24" viewBox="0 0 24 24" fill="none" xmlns="http://www.w3.org/2000/svg">
<path d="M6 5.5V15.5M18 8.5V16.5V17C18 17.8284 17.3284 18.5 16.5 18.5C15.6716 18.5 15 17.8284 15 17M15 11V14C15 14.8284 15.6716 15.5 16.5 15.5C17.3284 15.5 18 14.8284 18 14V11C18 10.1716 17.3284 9.5 16.5 9.5C15.6716 9.5 15 10.1716 15 11ZM12 11V14C12 14.8284 11.3284 15.5 10.5 15.5C9.67157 15.5 9 14.8284 9 14V11C9 10.1716 9.67157 9.5 10.5 9.5C11.3284 9.5 12 10.1716 12 11Z" stroke="white" stroke-linecap="round"/>
</svg>
