<svg width="24" height="24" viewBox="0 0 24 24" fill="none" xmlns="http://www.w3.org/2000/svg">
<mask id="path-1-inside-1_57_2" fill="white">
<path d="M12 19L20 9L17 5H7L4 9L12 19Z"/>
</mask>
<path d="M13.1623 8.47758L13.4945 8.10387V8.10387L13.1623 8.47758ZM10.5298 10.1641L10.094 10.4093L10.094 10.4093L10.5298 10.1641ZM10.5528 10.205L10.9886 9.95982L10.9886 9.95982L10.5528 10.205ZM13.4472 11.795L13.0114 12.0402L13.0114 12.0402L13.4472 11.795ZM13.4702 11.8359L13.906 11.5907L13.906 11.5907L13.4702 11.8359ZM10.8377 13.5224L10.5055 13.8961L10.5055 13.8961L10.8377 13.5224ZM13.1623 13.5224L12.8301 13.1487V13.1487L13.1623 13.5224ZM10.8377 8.47758L11.1699 8.85128V8.85128L10.8377 8.47758ZM13.5 8.77778L13.8322 8.40407L13.4945 8.10387L13.1623 8.47758L12.8301 8.85128L13.1678 9.15148L13.5 8.77778ZM10.5298 10.1641L10.094 10.4093L10.117 10.4501L10.5528 10.205L10.9886 9.95982L10.9656 9.919L10.5298 10.1641ZM13.4472 11.795L13.0114 12.0402L13.0344 12.081L13.4702 11.8359L13.906 11.5907L13.883 11.5499L13.4472 11.795ZM10.8377 13.5224L11.1699 13.1487L10.8322 12.8485L10.5 13.2222L10.1678 13.5959L10.5055 13.8961L10.8377 13.5224ZM13.1623 13.5224L12.8301 13.1487C12.6097 13.3446 12.3109 13.4504 12 13.4504V13.9504V14.4504C12.5305 14.4504 13.0729 14.2708 13.4945 13.8961L13.1623 13.5224ZM12 13.9504V13.4504C11.6891 13.4504 11.3903 13.3446 11.1699 13.1487L10.8377 13.5224L10.5055 13.8961C10.9271 14.2708 11.4695 14.4504 12 14.4504V13.9504ZM13.4702 11.8359L13.0344 12.081C13.2294 12.4277 13.1641 12.8518 12.8301 13.1487L13.1623 13.5224L13.4945 13.8961C14.161 13.3036 14.3438 12.3691 13.906 11.5907L13.4702 11.8359ZM12 11V11.5C12.4534 11.5 12.8358 11.728 13.0114 12.0402L13.4472 11.795L13.883 11.5499C13.5104 10.8876 12.7723 10.5 12 10.5V11ZM10.5528 10.205L10.117 10.4501C10.4896 11.1124 11.2277 11.5 12 11.5V11V10.5C11.5466 10.5 11.1642 10.272 10.9886 9.95982L10.5528 10.205ZM10.8377 8.47758L10.5055 8.10387C9.83897 8.69638 9.65622 9.63092 10.094 10.4093L10.5298 10.1641L10.9656 9.919C10.7706 9.57234 10.8359 9.14817 11.1699 8.85128L10.8377 8.47758ZM13.1623 8.47758L13.4945 8.10387C13.0729 7.72919 12.5305 7.54964 12 7.54964V8.04964V8.54964C12.3109 8.54964 12.6097 8.65539 12.8301 8.85128L13.1623 8.47758ZM12 8.04964V7.54964C11.4695 7.54964 10.9271 7.72919 10.5055 8.10387L10.8377 8.47758L11.1699 8.85128C11.3903 8.65539 11.6891 8.54964 12 8.54964V8.04964ZM12 8.04964H12.5V7H12H11.5V8.04964H12ZM12 13.9504H11.5V15H12H12.5V13.9504H12ZM20 9L20.7809 9.62469L21.2648 9.01976L20.8 8.4L20 9ZM12 19L11.2191 19.6247L12 20.6008L12.7809 19.6247L12 19ZM4 9L3.2 8.4L2.73518 9.01976L3.21913 9.62469L4 9ZM7 5V4H6.5L6.2 4.4L7 5ZM17 5L17.8 4.4L17.5 4H17V5ZM20 9L19.2191 8.3753L11.2191 18.3753L12 19L12.7809 19.6247L20.7809 9.62469L20 9ZM12 19L12.7809 18.3753L4.78087 8.3753L4 9L3.21913 9.62469L11.2191 19.6247L12 19ZM4 9L4.8 9.6L7.8 5.6L7 5L6.2 4.4L3.2 8.4L4 9ZM17 5L16.2 5.6L19.2 9.6L20 9L20.8 8.4L17.8 4.4L17 5ZM7 5V6H17V5V4H7V5Z" fill="white" mask="url(#path-1-inside-1_57_2)"/>
</svg>
