<svg width="24" height="24" viewBox="0 0 24 24" fill="none" xmlns="http://www.w3.org/2000/svg">
<path d="M12.2051 3.43652L18.0713 5.56934L18.335 5.66504L18.4307 5.92871L20.5635 11.7949L20.6387 12L20.5635 12.2051L18.4307 18.0713L18.335 18.335L18.0713 18.4307L12.2051 20.5635L12 20.6387L11.7949 20.5635L5.92871 18.4307L5.66504 18.335L5.56934 18.0713L3.43652 12.2051L3.36133 12L3.43652 11.7949L5.56934 5.92871L5.66504 5.66504L5.92871 5.56934L11.7949 3.43652L12 3.36133L12.2051 3.43652ZM6.60156 6.60156L4.6377 12L6.60059 17.3975L12 19.3613L17.3984 17.3984L19.3613 12L17.3975 6.60059L12 4.6377L6.60156 6.60156ZM9.59961 7.90039C10.8145 7.90039 11.7996 8.88476 11.7998 10.0996V10.9004C11.7996 12.1152 10.8145 13.0996 9.59961 13.0996H8.59961V16.5H7.40039V7.90039H9.59961ZM14.9004 7.90039C16.1151 7.9006 17.0994 8.88489 17.0996 10.0996V10.9004C17.0994 12.1151 16.1151 13.0994 14.9004 13.0996H13.9004V16.5H12.7002V7.90039H14.9004ZM8.59961 11.9004H9.59961C10.1518 11.9004 10.5994 11.4525 10.5996 10.9004V10.0996C10.5994 9.5475 10.1518 9.09961 9.59961 9.09961H8.59961V11.9004ZM13.9004 11.9004H14.9004C15.4524 11.9002 15.9002 11.4524 15.9004 10.9004V10.0996C15.9002 9.54763 15.4524 9.09982 14.9004 9.09961H13.9004V11.9004Z" fill="currentColor"/>
</svg>
